<?xml version="1.0" encoding="UTF-8" standalone="no"?>
<!DOCTYPE svg PUBLIC "-//W3C//DTD SVG 1.1//EN"
 "http://www.w3.org/Graphics/SVG/1.1/DTD/svg11.dtd">
<!-- Generated by graphviz version 14.1.1 (20251213.1925)
 -->
<!-- Title: cs1238_register_test Pages: 1 -->
<svg width="288pt" height="984pt"
 viewBox="0.00 0.00 288.00 984.00" xmlns="http://www.w3.org/2000/svg" xmlns:xlink="http://www.w3.org/1999/xlink">
<g id="graph0" class="graph" transform="scale(1 1) rotate(0) translate(4 980)">
<title>cs1238_register_test</title>
<!-- Node1 -->
<g id="Node000001" class="node">
<title>Node1</title>
<g id="a_Node000001"><a xlink:title="register test">
<polygon fill="#999999" stroke="#666666" points="106.75,-516 0,-516 0,-496 106.75,-496 106.75,-516"/>
<text xml:space="preserve" text-anchor="middle" x="53.38" y="-502.5" font-family="Helvetica,sans-Serif" font-size="10.00">cs1238_register_test</text>
</a>
</g>
</g>
<!-- Node2 -->
<g id="Node000002" class="node">
<title>Node2</title>
<g id="a_Node000002"><a xlink:href="group__cs1238__basic__driver.html#gaef1bccef841e4fc19a589fbcaf735093" target="_top" xlink:title="close the chip">
<polygon fill="white" stroke="#666666" points="249.5,-976 173.5,-976 173.5,-956 249.5,-956 249.5,-976"/>
<text xml:space="preserve" text-anchor="middle" x="211.5" y="-962.5" font-family="Helvetica,sans-Serif" font-size="10.00">cs1238_deinit</text>
</a>
</g>
</g>
<!-- Node1&#45;&gt;Node2 -->
<g id="edge1_Node000001_Node000002" class="edge">
<title>Node1&#45;&gt;Node2</title>
<g id="a_edge1_Node000001_Node000002"><a xlink:title=" ">
<path fill="none" stroke="#63b8ff" d="M55.01,-516.29C58.92,-576.33 81.57,-881 142.75,-947 148.05,-952.72 154.92,-956.77 162.25,-959.62"/>
<polygon fill="#63b8ff" stroke="#63b8ff" points="161.14,-962.94 171.73,-962.56 163.21,-956.26 161.14,-962.94"/>
</a>
</g>
</g>
<!-- Node3 -->
<g id="Node000003" class="node">
<title>Node3</title>
<g id="a_Node000003"><a xlink:href="group__cs1238__basic__driver.html#ga9e283d3b3f04b341c591a154818c77b7" target="_top" xlink:title="get adc rate">
<polygon fill="white" stroke="#666666" points="266,-938 157,-938 157,-918 266,-918 266,-938"/>
<text xml:space="preserve" text-anchor="middle" x="211.5" y="-924.5" font-family="Helvetica,sans-Serif" font-size="10.00">cs1238_get_adc_rate</text>
</a>
</g>
</g>
<!-- Node1&#45;&gt;Node3 -->
<g id="edge2_Node000001_Node000003" class="edge">
<title>Node1&#45;&gt;Node3</title>
<g id="a_edge2_Node000001_Node000003"><a xlink:title=" ">
<path fill="none" stroke="#63b8ff" d="M55.21,-516.14C60.04,-572.74 86.33,-849.23 142.75,-909 144.1,-910.44 145.56,-911.76 147.09,-913"/>
<polygon fill="#63b8ff" stroke="#63b8ff" points="145.04,-915.84 155.36,-918.23 148.78,-909.92 145.04,-915.84"/>
</a>
</g>
</g>
<!-- Node4 -->
<g id="Node000004" class="node">
<title>Node4</title>
<g id="a_Node000004"><a xlink:href="group__cs1238__basic__driver.html#ga465520b5159afcda2c1d6799bf60e9ce" target="_top" xlink:title="get adc channel">
<polygon fill="white" stroke="#666666" points="264.12,-900 158.88,-900 158.88,-880 264.12,-880 264.12,-900"/>
<text xml:space="preserve" text-anchor="middle" x="211.5" y="-886.5" font-family="Helvetica,sans-Serif" font-size="10.00">cs1238_get_channel</text>
</a>
</g>
</g>
<!-- Node1&#45;&gt;Node4 -->
<g id="edge3_Node000001_Node000004" class="edge">
<title>Node1&#45;&gt;Node4</title>
<g id="a_edge3_Node000001_Node000004"><a xlink:title=" ">
<path fill="none" stroke="#63b8ff" d="M55.46,-516.22C61.36,-569.78 91.14,-817.51 142.75,-871 144.54,-872.86 146.5,-874.54 148.58,-876.06"/>
<polygon fill="#63b8ff" stroke="#63b8ff" points="146.68,-879 157.09,-880.98 150.19,-872.94 146.68,-879"/>
</a>
</g>
</g>
<!-- Node5 -->
<g id="Node000005" class="node">
<title>Node5</title>
<g id="a_Node000005"><a xlink:href="group__cs1238__basic__driver.html#ga73ee3e1d1e501ed6468e46470a8bcf9a" target="_top" xlink:title="get adc pga">
<polygon fill="white" stroke="#666666" points="255.12,-862 167.88,-862 167.88,-842 255.12,-842 255.12,-862"/>
<text xml:space="preserve" text-anchor="middle" x="211.5" y="-848.5" font-family="Helvetica,sans-Serif" font-size="10.00">cs1238_get_pga</text>
</a>
</g>
</g>
<!-- Node1&#45;&gt;Node5 -->
<g id="edge4_Node000001_Node000005" class="edge">
<title>Node1&#45;&gt;Node5</title>
<g id="a_edge4_Node000001_Node000005"><a xlink:title=" ">
<path fill="none" stroke="#63b8ff" d="M55.8,-516.47C62.91,-567.08 95.98,-785.79 142.75,-833 146.84,-837.13 151.74,-840.37 157.02,-842.93"/>
<polygon fill="#63b8ff" stroke="#63b8ff" points="155.51,-846.1 166.1,-846.48 158.07,-839.58 155.51,-846.1"/>
</a>
</g>
</g>
<!-- Node6 -->
<g id="Node000006" class="node">
<title>Node6</title>
<g id="a_Node000006"><a xlink:href="group__cs1238__basic__driver.html#gaa37920543a83a27493cc1f39d3a8768c" target="_top" xlink:title="get reference voltage output status">
<polygon fill="white" stroke="#666666" points="267.5,-824 155.5,-824 155.5,-792 267.5,-792 267.5,-824"/>
<text xml:space="preserve" text-anchor="start" x="163.5" y="-810.5" font-family="Helvetica,sans-Serif" font-size="10.00">cs1238_get_reference</text>
<text xml:space="preserve" text-anchor="middle" x="211.5" y="-798.5" font-family="Helvetica,sans-Serif" font-size="10.00">_voltage_output</text>
</a>
</g>
</g>
<!-- Node1&#45;&gt;Node6 -->
<g id="edge5_Node000001_Node000006" class="edge">
<title>Node1&#45;&gt;Node6</title>
<g id="a_edge5_Node000001_Node000006"><a xlink:title=" ">
<path fill="none" stroke="#63b8ff" d="M54.58,-516.4C55.94,-556.52 66.17,-702.92 142.75,-783 143.77,-784.07 144.85,-785.1 145.96,-786.08"/>
<polygon fill="#63b8ff" stroke="#63b8ff" points="143.87,-788.88 154.02,-791.89 147.96,-783.2 143.87,-788.88"/>
</a>
</g>
</g>
<!-- Node7 -->
<g id="Node000007" class="node">
<title>Node7</title>
<g id="a_Node000007"><a xlink:href="group__cs1238__basic__driver.html#ga7e361d4c930a3e926268e69889be1406" target="_top" xlink:title="get chip&#39;s information">
<polygon fill="white" stroke="#666666" points="245.75,-774 177.25,-774 177.25,-754 245.75,-754 245.75,-774"/>
<text xml:space="preserve" text-anchor="middle" x="211.5" y="-760.5" font-family="Helvetica,sans-Serif" font-size="10.00">cs1238_info</text>
</a>
</g>
</g>
<!-- Node1&#45;&gt;Node7 -->
<g id="edge6_Node000001_Node000007" class="edge">
<title>Node1&#45;&gt;Node7</title>
<g id="a_edge6_Node000001_Node000007"><a xlink:title=" ">
<path fill="none" stroke="#63b8ff" d="M54.99,-516.42C57.75,-553.44 72.18,-679.91 142.75,-745 149.32,-751.06 157.66,-755.2 166.23,-758.04"/>
<polygon fill="#63b8ff" stroke="#63b8ff" points="165.06,-761.35 175.62,-760.57 166.88,-754.59 165.06,-761.35"/>
</a>
</g>
</g>
<!-- Node8 -->
<g id="Node000008" class="node">
<title>Node8</title>
<g id="a_Node000008"><a xlink:href="group__cs1238__basic__driver.html#ga81d8ff20f8c2d7a6b6aa78dba08202b3" target="_top" xlink:title="initialize the chip">
<polygon fill="white" stroke="#666666" points="244.25,-736 178.75,-736 178.75,-716 244.25,-716 244.25,-736"/>
<text xml:space="preserve" text-anchor="middle" x="211.5" y="-722.5" font-family="Helvetica,sans-Serif" font-size="10.00">cs1238_init</text>
</a>
</g>
</g>
<!-- Node1&#45;&gt;Node8 -->
<g id="edge7_Node000001_Node000008" class="edge">
<title>Node1&#45;&gt;Node8</title>
<g id="a_edge7_Node000001_Node000008"><a xlink:title=" ">
<path fill="none" stroke="#63b8ff" d="M55.76,-516.14C60.78,-548.99 81.15,-653.52 142.75,-707 149.77,-713.09 158.6,-717.24 167.54,-720.06"/>
<polygon fill="#63b8ff" stroke="#63b8ff" points="166.37,-723.38 176.93,-722.51 168.13,-716.6 166.37,-723.38"/>
</a>
</g>
</g>
<!-- Node9 -->
<g id="Node000009" class="node">
<title>Node9</title>
<g id="a_Node000009"><a xlink:href="group__cs1238__interface__driver.html#ga2ee2de894c9ea47ab3b004da967e1306" target="_top" xlink:title="interface print format data">
<polygon fill="white" stroke="#666666" points="272.38,-698 150.62,-698 150.62,-666 272.38,-666 272.38,-698"/>
<text xml:space="preserve" text-anchor="start" x="158.62" y="-684.5" font-family="Helvetica,sans-Serif" font-size="10.00">cs1238_interface_debug</text>
<text xml:space="preserve" text-anchor="middle" x="211.5" y="-672.5" font-family="Helvetica,sans-Serif" font-size="10.00">_print</text>
</a>
</g>
</g>
<!-- Node1&#45;&gt;Node9 -->
<g id="edge8_Node000001_Node000009" class="edge">
<title>Node1&#45;&gt;Node9</title>
<g id="a_edge8_Node000001_Node000009"><a xlink:title=" ">
<path fill="none" stroke="#63b8ff" d="M57.68,-516.43C66.79,-543.53 94.79,-616.81 142.75,-657 143.71,-657.81 144.7,-658.59 145.71,-659.34"/>
<polygon fill="#63b8ff" stroke="#63b8ff" points="143.81,-662.28 154.13,-664.71 147.58,-656.38 143.81,-662.28"/>
</a>
</g>
</g>
<!-- Node10 -->
<g id="Node000010" class="node">
<title>Node10</title>
<g id="a_Node000010"><a xlink:href="group__cs1238__interface__driver.html#gadebb53594a742652f5ddf8acd35444dc" target="_top" xlink:title="interface delay ms">
<polygon fill="white" stroke="#666666" points="280.25,-648 142.75,-648 142.75,-628 280.25,-628 280.25,-648"/>
<text xml:space="preserve" text-anchor="middle" x="211.5" y="-634.5" font-family="Helvetica,sans-Serif" font-size="10.00">cs1238_interface_delay_ms</text>
</a>
</g>
</g>
<!-- Node1&#45;&gt;Node10 -->
<g id="edge9_Node000001_Node000010" class="edge">
<title>Node1&#45;&gt;Node10</title>
<g id="a_edge9_Node000001_Node000010"><a xlink:title=" ">
<path fill="none" stroke="#63b8ff" d="M59.44,-516.21C71.01,-538.43 101.57,-591.42 142.75,-619 144.85,-620.41 147.06,-621.71 149.34,-622.92"/>
<polygon fill="#63b8ff" stroke="#63b8ff" points="147.77,-626.06 158.32,-627.01 150.67,-619.68 147.77,-626.06"/>
</a>
</g>
</g>
<!-- Node11 -->
<g id="Node000011" class="node">
<title>Node11</title>
<g id="a_Node000011"><a xlink:href="group__cs1238__interface__driver.html#gad803c2df12453d7dcf59e827f0f24a5c" target="_top" xlink:title="interface delay us">
<polygon fill="white" stroke="#666666" points="278.75,-610 144.25,-610 144.25,-590 278.75,-590 278.75,-610"/>
<text xml:space="preserve" text-anchor="middle" x="211.5" y="-596.5" font-family="Helvetica,sans-Serif" font-size="10.00">cs1238_interface_delay_us</text>
</a>
</g>
</g>
<!-- Node1&#45;&gt;Node11 -->
<g id="edge10_Node000001_Node000011" class="edge">
<title>Node1&#45;&gt;Node11</title>
<g id="a_edge10_Node000001_Node000011"><a xlink:title=" ">
<path fill="none" stroke="#63b8ff" d="M63.66,-516.34C78.7,-532.48 110.06,-563.62 142.75,-581 145.93,-582.69 149.28,-584.25 152.71,-585.67"/>
<polygon fill="#63b8ff" stroke="#63b8ff" points="151.18,-588.84 161.77,-589.04 153.62,-582.27 151.18,-588.84"/>
</a>
</g>
</g>
<!-- Node12 -->
<g id="Node000012" class="node">
<title>Node12</title>
<g id="a_Node000012"><a xlink:href="group__cs1238__interface__driver.html#gac62dc229ffe3f973bf3254a4e4000174" target="_top" xlink:title="interface dout gpio deinit">
<polygon fill="white" stroke="#666666" points="268.62,-572 154.38,-572 154.38,-540 268.62,-540 268.62,-572"/>
<text xml:space="preserve" text-anchor="start" x="162.38" y="-558.5" font-family="Helvetica,sans-Serif" font-size="10.00">cs1238_interface_dout</text>
<text xml:space="preserve" text-anchor="middle" x="211.5" y="-546.5" font-family="Helvetica,sans-Serif" font-size="10.00">_gpio_deinit</text>
</a>
</g>
</g>
<!-- Node1&#45;&gt;Node12 -->
<g id="edge11_Node000001_Node000012" class="edge">
<title>Node1&#45;&gt;Node12</title>
<g id="a_edge11_Node000001_Node000012"><a xlink:title=" ">
<path fill="none" stroke="#63b8ff" d="M87.1,-516.48C104.85,-522.16 127.37,-529.38 148.3,-536.08"/>
<polygon fill="#63b8ff" stroke="#63b8ff" points="147.04,-539.35 157.63,-539.07 149.17,-532.68 147.04,-539.35"/>
</a>
</g>
</g>
<!-- Node13 -->
<g id="Node000013" class="node">
<title>Node13</title>
<g id="a_Node000013"><a xlink:href="group__cs1238__interface__driver.html#gaaf77cb5a2f9cfade86f3b03db50e9fa5" target="_top" xlink:title="interface dout gpio init">
<polygon fill="white" stroke="#666666" points="268.62,-522 154.38,-522 154.38,-490 268.62,-490 268.62,-522"/>
<text xml:space="preserve" text-anchor="start" x="162.38" y="-508.5" font-family="Helvetica,sans-Serif" font-size="10.00">cs1238_interface_dout</text>
<text xml:space="preserve" text-anchor="middle" x="211.5" y="-496.5" font-family="Helvetica,sans-Serif" font-size="10.00">_gpio_init</text>
</a>
</g>
</g>
<!-- Node1&#45;&gt;Node13 -->
<g id="edge12_Node000001_Node000013" class="edge">
<title>Node1&#45;&gt;Node13</title>
<g id="a_edge12_Node000001_Node000013"><a xlink:title=" ">
<path fill="none" stroke="#63b8ff" d="M107.23,-506C118.63,-506 130.83,-506 142.7,-506"/>
<polygon fill="#63b8ff" stroke="#63b8ff" points="142.44,-509.5 152.44,-506 142.44,-502.5 142.44,-509.5"/>
</a>
</g>
</g>
<!-- Node14 -->
<g id="Node000014" class="node">
<title>Node14</title>
<g id="a_Node000014"><a xlink:href="group__cs1238__interface__driver.html#ga426eb70179841a725e16aaaaed1fa059" target="_top" xlink:title="interface dout gpio read">
<polygon fill="white" stroke="#666666" points="268.62,-472 154.38,-472 154.38,-440 268.62,-440 268.62,-472"/>
<text xml:space="preserve" text-anchor="start" x="162.38" y="-458.5" font-family="Helvetica,sans-Serif" font-size="10.00">cs1238_interface_dout</text>
<text xml:space="preserve" text-anchor="middle" x="211.5" y="-446.5" font-family="Helvetica,sans-Serif" font-size="10.00">_gpio_read</text>
</a>
</g>
</g>
<!-- Node1&#45;&gt;Node14 -->
<g id="edge13_Node000001_Node000014" class="edge">
<title>Node1&#45;&gt;Node14</title>
<g id="a_edge13_Node000001_Node000014"><a xlink:title=" ">
<path fill="none" stroke="#63b8ff" d="M87.1,-495.52C104.85,-489.84 127.37,-482.62 148.3,-475.92"/>
<polygon fill="#63b8ff" stroke="#63b8ff" points="149.17,-479.32 157.63,-472.93 147.04,-472.65 149.17,-479.32"/>
</a>
</g>
</g>
<!-- Node15 -->
<g id="Node000015" class="node">
<title>Node15</title>
<g id="a_Node000015"><a xlink:href="group__cs1238__interface__driver.html#ga8079e85bc6f713285f07f443bfa7507b" target="_top" xlink:title="interface dout gpio write">
<polygon fill="white" stroke="#666666" points="268.62,-422 154.38,-422 154.38,-390 268.62,-390 268.62,-422"/>
<text xml:space="preserve" text-anchor="start" x="162.38" y="-408.5" font-family="Helvetica,sans-Serif" font-size="10.00">cs1238_interface_dout</text>
<text xml:space="preserve" text-anchor="middle" x="211.5" y="-396.5" font-family="Helvetica,sans-Serif" font-size="10.00">_gpio_write</text>
</a>
</g>
</g>
<!-- Node1&#45;&gt;Node15 -->
<g id="edge14_Node000001_Node000015" class="edge">
<title>Node1&#45;&gt;Node15</title>
<g id="a_edge14_Node000001_Node000015"><a xlink:title=" ">
<path fill="none" stroke="#63b8ff" d="M64.08,-495.71C79.45,-479.92 110.95,-449.57 142.75,-431 145.03,-429.67 147.4,-428.38 149.82,-427.15"/>
<polygon fill="#63b8ff" stroke="#63b8ff" points="151.07,-430.43 158.64,-423.01 148.1,-424.09 151.07,-430.43"/>
</a>
</g>
</g>
<!-- Node16 -->
<g id="Node000016" class="node">
<title>Node16</title>
<g id="a_Node000016"><a xlink:href="group__cs1238__interface__driver.html#ga2a1ed51eef2e262a3a819ae05fc0672e" target="_top" xlink:title="interface sclk gpio deinit">
<polygon fill="white" stroke="#666666" points="268.25,-372 154.75,-372 154.75,-340 268.25,-340 268.25,-372"/>
<text xml:space="preserve" text-anchor="start" x="162.75" y="-358.5" font-family="Helvetica,sans-Serif" font-size="10.00">cs1238_interface_sclk</text>
<text xml:space="preserve" text-anchor="middle" x="211.5" y="-346.5" font-family="Helvetica,sans-Serif" font-size="10.00">_gpio_deinit</text>
</a>
</g>
</g>
<!-- Node1&#45;&gt;Node16 -->
<g id="edge15_Node000001_Node000016" class="edge">
<title>Node1&#45;&gt;Node16</title>
<g id="a_edge15_Node000001_Node000016"><a xlink:title=" ">
<path fill="none" stroke="#63b8ff" d="M58.99,-495.67C70.06,-472.03 100.37,-413.52 142.75,-381 144.06,-380 145.41,-379.03 146.79,-378.1"/>
<polygon fill="#63b8ff" stroke="#63b8ff" points="148.22,-381.33 155.07,-373.25 144.68,-375.29 148.22,-381.33"/>
</a>
</g>
</g>
<!-- Node17 -->
<g id="Node000017" class="node">
<title>Node17</title>
<g id="a_Node000017"><a xlink:href="group__cs1238__interface__driver.html#ga9c911b125fc9da402a33839b11d86c60" target="_top" xlink:title="interface sclk gpio init">
<polygon fill="white" stroke="#666666" points="268.25,-322 154.75,-322 154.75,-290 268.25,-290 268.25,-322"/>
<text xml:space="preserve" text-anchor="start" x="162.75" y="-308.5" font-family="Helvetica,sans-Serif" font-size="10.00">cs1238_interface_sclk</text>
<text xml:space="preserve" text-anchor="middle" x="211.5" y="-296.5" font-family="Helvetica,sans-Serif" font-size="10.00">_gpio_init</text>
</a>
</g>
</g>
<!-- Node1&#45;&gt;Node17 -->
<g id="edge16_Node000001_Node000017" class="edge">
<title>Node1&#45;&gt;Node17</title>
<g id="a_edge16_Node000001_Node000017"><a xlink:title=" ">
<path fill="none" stroke="#63b8ff" d="M56.74,-495.69C64.11,-465.86 89.41,-378.58 142.75,-331 143.66,-330.19 144.6,-329.4 145.57,-328.64"/>
<polygon fill="#63b8ff" stroke="#63b8ff" points="147.23,-331.73 153.6,-323.26 143.34,-325.92 147.23,-331.73"/>
</a>
</g>
</g>
<!-- Node18 -->
<g id="Node000018" class="node">
<title>Node18</title>
<g id="a_Node000018"><a xlink:href="group__cs1238__interface__driver.html#ga48d65629a9c1375c9eaff024a9667cfe" target="_top" xlink:title="interface sclk gpio write">
<polygon fill="white" stroke="#666666" points="268.25,-272 154.75,-272 154.75,-240 268.25,-240 268.25,-272"/>
<text xml:space="preserve" text-anchor="start" x="162.75" y="-258.5" font-family="Helvetica,sans-Serif" font-size="10.00">cs1238_interface_sclk</text>
<text xml:space="preserve" text-anchor="middle" x="211.5" y="-246.5" font-family="Helvetica,sans-Serif" font-size="10.00">_gpio_write</text>
</a>
</g>
</g>
<!-- Node1&#45;&gt;Node18 -->
<g id="edge17_Node000001_Node000018" class="edge">
<title>Node1&#45;&gt;Node18</title>
<g id="a_edge17_Node000001_Node000018"><a xlink:title=" ">
<path fill="none" stroke="#63b8ff" d="M55.46,-495.64C59.68,-460.46 78.14,-344.28 142.75,-281 143.62,-280.14 144.53,-279.32 145.46,-278.52"/>
<polygon fill="#63b8ff" stroke="#63b8ff" points="147.18,-281.6 153.29,-272.94 143.11,-275.9 147.18,-281.6"/>
</a>
</g>
</g>
<!-- Node19 -->
<g id="Node000019" class="node">
<title>Node19</title>
<g id="a_Node000019"><a xlink:href="group__cs1238__basic__driver.html#gacbfc7c76e5af93bc8d906c87d445651b" target="_top" xlink:title="power down">
<polygon fill="white" stroke="#666666" points="265.25,-222 157.75,-222 157.75,-202 265.25,-202 265.25,-222"/>
<text xml:space="preserve" text-anchor="middle" x="211.5" y="-208.5" font-family="Helvetica,sans-Serif" font-size="10.00">cs1238_power_down</text>
</a>
</g>
</g>
<!-- Node1&#45;&gt;Node19 -->
<g id="edge18_Node000001_Node000019" class="edge">
<title>Node1&#45;&gt;Node19</title>
<g id="a_edge18_Node000001_Node000019"><a xlink:title=" ">
<path fill="none" stroke="#63b8ff" d="M54.41,-495.76C55.13,-455.62 63.29,-307.53 142.75,-231 144.33,-229.47 146.03,-228.07 147.81,-226.78"/>
<polygon fill="#63b8ff" stroke="#63b8ff" points="149.19,-230.02 156.06,-221.95 145.66,-223.98 149.19,-230.02"/>
</a>
</g>
</g>
<!-- Node20 -->
<g id="Node000020" class="node">
<title>Node20</title>
<g id="a_Node000020"><a xlink:href="group__cs1238__basic__driver.html#ga5df401cf673aeba76deafa0a3a2c0a4c" target="_top" xlink:title="set adc rate">
<polygon fill="white" stroke="#666666" points="266,-184 157,-184 157,-164 266,-164 266,-184"/>
<text xml:space="preserve" text-anchor="middle" x="211.5" y="-170.5" font-family="Helvetica,sans-Serif" font-size="10.00">cs1238_set_adc_rate</text>
</a>
</g>
</g>
<!-- Node1&#45;&gt;Node20 -->
<g id="edge19_Node000001_Node000020" class="edge">
<title>Node1&#45;&gt;Node20</title>
<g id="a_edge19_Node000001_Node000020"><a xlink:title=" ">
<path fill="none" stroke="#63b8ff" d="M53.94,-495.59C52.73,-451.9 54.03,-281.56 142.75,-193 144.12,-191.64 145.57,-190.37 147.1,-189.19"/>
<polygon fill="#63b8ff" stroke="#63b8ff" points="148.59,-192.38 155.27,-184.16 144.92,-186.42 148.59,-192.38"/>
</a>
</g>
</g>
<!-- Node21 -->
<g id="Node000021" class="node">
<title>Node21</title>
<g id="a_Node000021"><a xlink:href="group__cs1238__basic__driver.html#gaf55ecfae1bc8d37a6087ac65f014a17b" target="_top" xlink:title="set adc channel">
<polygon fill="white" stroke="#666666" points="264.12,-146 158.88,-146 158.88,-126 264.12,-126 264.12,-146"/>
<text xml:space="preserve" text-anchor="middle" x="211.5" y="-132.5" font-family="Helvetica,sans-Serif" font-size="10.00">cs1238_set_channel</text>
</a>
</g>
</g>
<!-- Node1&#45;&gt;Node21 -->
<g id="edge20_Node000001_Node000021" class="edge">
<title>Node1&#45;&gt;Node21</title>
<g id="a_edge20_Node000001_Node000021"><a xlink:title=" ">
<path fill="none" stroke="#63b8ff" d="M55.56,-495.82C61.85,-443.6 92.89,-206.22 142.75,-155 144.55,-153.15 146.51,-151.48 148.6,-149.96"/>
<polygon fill="#63b8ff" stroke="#63b8ff" points="150.21,-153.08 157.13,-145.05 146.72,-147.01 150.21,-153.08"/>
</a>
</g>
</g>
<!-- Node22 -->
<g id="Node000022" class="node">
<title>Node22</title>
<g id="a_Node000022"><a xlink:href="group__cs1238__basic__driver.html#ga852ca49683c6c08ef3263210aba0adce" target="_top" xlink:title="set adc pga">
<polygon fill="white" stroke="#666666" points="255.12,-108 167.88,-108 167.88,-88 255.12,-88 255.12,-108"/>
<text xml:space="preserve" text-anchor="middle" x="211.5" y="-94.5" font-family="Helvetica,sans-Serif" font-size="10.00">cs1238_set_pga</text>
</a>
</g>
</g>
<!-- Node1&#45;&gt;Node22 -->
<g id="edge21_Node000001_Node000022" class="edge">
<title>Node1&#45;&gt;Node22</title>
<g id="a_edge21_Node000001_Node000022"><a xlink:title=" ">
<path fill="none" stroke="#63b8ff" d="M55.29,-495.85C60.51,-440.39 88.1,-174.46 142.75,-117 146.8,-112.74 151.73,-109.41 157.05,-106.81"/>
<polygon fill="#63b8ff" stroke="#63b8ff" points="158.21,-110.11 166.25,-103.21 155.66,-103.59 158.21,-110.11"/>
</a>
</g>
</g>
<!-- Node23 -->
<g id="Node000023" class="node">
<title>Node23</title>
<g id="a_Node000023"><a xlink:href="group__cs1238__basic__driver.html#ga8a3f1b0e88c14394f14e92b194d01552" target="_top" xlink:title="enable or disable reference voltage output">
<polygon fill="white" stroke="#666666" points="267.5,-70 155.5,-70 155.5,-38 267.5,-38 267.5,-70"/>
<text xml:space="preserve" text-anchor="start" x="163.5" y="-56.5" font-family="Helvetica,sans-Serif" font-size="10.00">cs1238_set_reference</text>
<text xml:space="preserve" text-anchor="middle" x="211.5" y="-44.5" font-family="Helvetica,sans-Serif" font-size="10.00">_voltage_output</text>
</a>
</g>
</g>
<!-- Node1&#45;&gt;Node23 -->
<g id="edge22_Node000001_Node000023" class="edge">
<title>Node1&#45;&gt;Node23</title>
<g id="a_edge22_Node000001_Node000023"><a xlink:title=" ">
<path fill="none" stroke="#63b8ff" d="M55.17,-495.72C59.88,-437.07 85.96,-144.98 142.75,-79 143.85,-77.72 145.02,-76.51 146.25,-75.36"/>
<polygon fill="#63b8ff" stroke="#63b8ff" points="148.07,-78.37 153.94,-69.55 143.85,-72.79 148.07,-78.37"/>
</a>
</g>
</g>
<!-- Node24 -->
<g id="Node000024" class="node">
<title>Node24</title>
<g id="a_Node000024"><a xlink:href="group__cs1238__basic__driver.html#ga54b53eac7da5a84a1036b2da81bb745b" target="_top" xlink:title="wake up">
<polygon fill="white" stroke="#666666" points="257.38,-20 165.62,-20 165.62,0 257.38,0 257.38,-20"/>
<text xml:space="preserve" text-anchor="middle" x="211.5" y="-6.5" font-family="Helvetica,sans-Serif" font-size="10.00">cs1238_wake_up</text>
</a>
</g>
</g>
<!-- Node1&#45;&gt;Node24 -->
<g id="edge23_Node000001_Node000024" class="edge">
<title>Node1&#45;&gt;Node24</title>
<g id="a_edge23_Node000001_Node000024"><a xlink:title=" ">
<path fill="none" stroke="#63b8ff" d="M54.84,-495.71C57.9,-432.84 77,-100.97 142.75,-29 146.23,-25.19 150.4,-22.13 154.94,-19.66"/>
<polygon fill="#63b8ff" stroke="#63b8ff" points="156.18,-22.94 163.97,-15.75 153.4,-16.51 156.18,-22.94"/>
</a>
</g>
</g>
</g>
</svg>
